<?xml version="1.0" encoding="UTF-8"?>
<!-- Generator: visioncortex VTracer 0.6.3 -->
<svg version="1.1" xmlns="http://www.w3.org/2000/svg" width="1280" height="1280">
<path d="M0 0 C1.37 -0 1.37 -0 2.77 -0 C5.84 -0 8.91 0 11.98 0.01 C14.18 0.01 16.38 0.01 18.58 0.01 C24.55 0.01 30.53 0.01 36.51 0.02 C42.75 0.03 48.99 0.03 55.23 0.03 C65.71 0.03 76.19 0.04 86.68 0.04 C97.47 0.05 108.27 0.06 119.06 0.07 C119.73 0.07 120.39 0.07 121.08 0.07 C124.42 0.07 127.75 0.07 131.09 0.07 C158.79 0.08 186.48 0.1 214.17 0.12 C212.91 3.37 211.62 6.2 209.65 9.08 C209.14 9.83 208.63 10.58 208.11 11.35 C207.56 12.15 207.01 12.96 206.44 13.78 C205.86 14.64 205.29 15.49 204.69 16.37 C203.44 18.2 202.2 20.04 200.94 21.87 C197.62 26.75 194.31 31.65 190.99 36.54 C190.33 37.52 189.66 38.51 188.97 39.53 C183.02 48.32 177.17 57.17 171.36 66.06 C169.49 68.91 167.63 71.76 165.76 74.61 C165.3 75.31 164.84 76.01 164.37 76.74 C159.12 84.75 153.8 92.72 148.49 100.68 C147.99 101.42 147.5 102.16 146.99 102.92 C143.39 108.32 139.78 113.72 136.17 119.12 C131.61 125.95 127.05 132.79 122.49 139.62 C121.9 140.49 121.32 141.37 120.72 142.27 C111.06 156.75 101.48 171.28 91.92 185.82 C82.34 200.38 72.64 214.85 62.87 229.28 C50.43 247.66 38.22 266.19 26.03 284.74 C19.07 295.32 12.04 305.86 5 316.39 C1.74 321.27 -1.52 326.15 -4.77 331.03 C-7 334.39 -9.25 337.75 -11.5 341.09 C-11.93 341.74 -12.37 342.39 -12.82 343.06 C-13.97 344.77 -15.12 346.49 -16.28 348.2 C-19.9 353.77 -23.34 359.46 -26.83 365.12 C1.22 365.12 29.27 365.12 58.17 365.12 C58.16 358.06 58.15 350.99 58.14 343.72 C58.13 339.26 58.13 334.79 58.12 330.33 C58.12 323.24 58.11 316.15 58.1 309.07 C58.09 303.35 58.08 297.64 58.08 291.93 C58.08 289.74 58.07 287.56 58.07 285.38 C58.06 282.33 58.06 279.28 58.06 276.23 C58.06 275.32 58.05 274.4 58.05 273.46 C58.06 267.23 58.06 267.23 59.17 266.12 C61.79 266.02 64.38 265.99 66.99 265.99 C67.82 265.99 68.65 265.99 69.51 265.99 C72.31 265.98 75.11 265.99 77.91 265.99 C79.9 265.99 81.9 265.99 83.9 265.99 C89.35 265.98 94.79 265.98 100.23 265.99 C105.92 265.99 111.6 265.99 117.28 265.98 C126.83 265.98 136.38 265.99 145.92 265.99 C156.98 266 168.03 265.99 179.09 265.99 C188.56 265.98 198.03 265.98 207.51 265.99 C213.17 265.99 218.84 265.99 224.5 265.98 C229.83 265.98 235.15 265.98 240.48 265.99 C242.44 265.99 244.4 265.99 246.36 265.99 C249.02 265.98 251.69 265.99 254.35 265.99 C255.14 265.99 255.93 265.99 256.74 265.99 C262.06 266.01 262.06 266.01 263.17 267.12 C263.27 270.16 263.3 273.19 263.29 276.23 C263.29 277.19 263.29 278.14 263.29 279.13 C263.29 282.3 263.28 285.48 263.27 288.66 C263.27 290.85 263.27 293.05 263.27 295.24 C263.26 301.03 263.25 306.83 263.24 312.62 C263.23 319.56 263.23 326.5 263.22 333.45 C263.21 344 263.19 354.56 263.17 365.12 C291.22 365.12 319.27 365.12 348.17 365.12 C348.17 420.89 348.17 476.66 348.17 534.12 C320.12 534.12 292.07 534.12 263.17 534.12 C263.17 570.42 263.17 606.72 263.17 644.12 C195.85 644.45 128.53 644.78 59.17 645.12 C58.51 647.1 57.85 649.08 57.17 651.12 C49.17 667.34 37.69 681.21 25.17 694.12 C24.41 694.91 23.64 695.71 22.85 696.53 C19.14 700.31 15.31 703.81 11.17 707.12 C14.38 709.75 17.67 712.2 21.08 714.57 C27.06 718.73 32.62 723.07 37.95 728.05 C39.95 729.92 42.01 731.68 44.11 733.43 C73.99 759.72 91.19 797.92 95.17 837.12 C95.55 843.24 95.56 849.37 95.55 855.5 C95.55 856.33 95.55 857.16 95.55 858.02 C95.51 872.03 94.46 885.45 91.17 899.12 C90.99 899.9 90.81 900.67 90.62 901.47 C87.84 912.92 83.3 923.54 78.17 934.12 C77.86 934.77 77.55 935.42 77.22 936.1 C69.73 951.49 59.79 965.25 47.81 977.45 C46.04 979.26 44.29 981.08 42.54 982.91 C34.93 990.76 27.12 997.81 18.17 1004.12 C17.55 1004.57 16.93 1005.02 16.29 1005.48 C-28.55 1037.73 -82.16 1052.29 -136.27 1058.8 C-138.28 1059.05 -140.29 1059.33 -142.3 1059.62 C-152.35 1061.01 -162.18 1061.43 -172.32 1061.42 C-173.96 1061.42 -175.6 1061.43 -177.24 1061.43 C-180.66 1061.44 -184.08 1061.44 -187.5 1061.44 C-190.95 1061.43 -194.4 1061.44 -197.85 1061.46 C-218.06 1061.56 -237.79 1061.15 -257.83 1058.12 C-259.49 1057.88 -261.15 1057.64 -262.81 1057.41 C-267.2 1056.77 -271.58 1056.05 -275.95 1055.31 C-276.71 1055.18 -277.47 1055.05 -278.25 1054.92 C-310.64 1049.4 -341.34 1039.72 -370.83 1025.12 C-371.94 1024.58 -371.94 1024.58 -373.07 1024.02 C-393.52 1013.86 -412.42 999.96 -428.83 984.12 C-429.68 983.32 -430.53 982.52 -431.4 981.7 C-438.3 975.07 -444.16 967.81 -449.83 960.12 C-450.25 959.55 -450.67 958.98 -451.11 958.4 C-466.83 937.01 -479.13 909.26 -480.48 882.53 C-480.6 881.73 -480.71 880.94 -480.83 880.12 C-481.49 879.79 -482.15 879.46 -482.83 879.12 C-483.02 872.93 -483.2 866.73 -483.36 860.54 C-483.42 858.43 -483.48 856.33 -483.55 854.22 C-483.64 851.19 -483.73 848.16 -483.8 845.14 C-483.84 844.19 -483.87 843.25 -483.9 842.28 C-483.92 841.4 -483.94 840.52 -483.96 839.61 C-483.98 838.84 -484.01 838.07 -484.03 837.27 C-483.8 834.81 -482.96 833.3 -481.83 831.12 C-481.49 828.38 -481.23 825.68 -481.01 822.93 C-479.87 810.71 -476.19 799.54 -471.83 788.12 C-471.17 788.12 -470.51 788.12 -469.83 788.12 C-469.58 786.96 -469.34 785.8 -469.08 784.61 C-467.95 780.07 -466.05 776.33 -463.7 772.31 C-463.3 771.61 -462.9 770.92 -462.49 770.2 C-458.99 764.21 -455.11 758.59 -450.83 753.12 C-450.19 752.28 -449.55 751.43 -448.89 750.57 C-435.72 733.76 -419.31 718.32 -400.42 708.17 C-399.89 707.82 -399.37 707.48 -398.83 707.12 C-398.83 706.46 -398.83 705.8 -398.83 705.12 C-399.63 704.8 -399.63 704.8 -400.44 704.46 C-403.7 702.63 -406.3 700.17 -409.01 697.62 C-409.59 697.08 -410.17 696.54 -410.77 695.98 C-430.93 676.91 -454.98 645.36 -455.92 616.2 C-455.89 615.52 -455.86 614.83 -455.83 614.12 C-456.49 613.79 -457.15 613.46 -457.83 613.12 C-458.21 610.69 -458.21 610.69 -458.39 607.68 C-458.56 603.75 -458.56 603.75 -459.83 600.12 C-459.83 597.79 -459.83 595.45 -459.83 593.12 C-460.07 591.38 -460.07 591.38 -460.32 589.6 C-461.02 584.28 -460.93 578.98 -460.89 573.62 C-460.88 572.61 -460.88 571.59 -460.88 570.55 C-460.86 568.07 -460.85 565.6 -460.83 563.12 C-460.5 563.12 -460.17 563.12 -459.83 563.12 C-459.84 562.42 -459.85 561.72 -459.86 561 C-459.87 560.09 -459.88 559.18 -459.89 558.25 C-459.9 557.34 -459.91 556.44 -459.92 555.5 C-459.83 553.12 -459.83 553.12 -458.83 551.12 C-458.65 549.58 -458.51 548.04 -458.39 546.5 C-457.97 541.85 -457.07 537.61 -455.83 533.12 C-455.17 533.12 -454.51 533.12 -453.83 533.12 C-453.91 532.34 -453.99 531.56 -454.08 530.75 C-453.73 525.68 -451.82 521.67 -449.76 517.06 C-449.15 515.65 -449.15 515.65 -448.52 514.22 C-434.41 482.52 -412.77 456.45 -383.83 437.12 C-382.92 436.51 -382.92 436.51 -381.99 435.88 C-371.96 429.11 -361.81 423.2 -350.83 418.12 C-350.1 417.78 -349.38 417.45 -348.63 417.1 C-340.55 413.36 -332.38 409.84 -324.08 406.62 C-323.43 406.36 -322.79 406.11 -322.13 405.85 C-318.23 404.38 -314.98 403.87 -310.83 404.12 C-310.83 403.46 -310.83 402.8 -310.83 402.12 C-308.52 402.12 -306.21 402.12 -303.83 402.12 C-303.83 401.46 -303.83 400.8 -303.83 400.12 C-301.93 399.61 -300.04 399.11 -298.14 398.62 C-296.56 398.2 -296.56 398.2 -294.94 397.78 C-291.83 397.12 -291.83 397.12 -289.18 397.28 C-286.74 397.33 -286.74 397.33 -284.89 395.67 C-281.96 392.05 -279.36 388.24 -276.76 384.37 C-275.6 382.65 -274.43 380.93 -273.26 379.21 C-272.68 378.35 -272.1 377.49 -271.51 376.6 C-269.11 373.06 -266.69 369.52 -264.26 366 C-263.82 365.34 -263.37 364.69 -262.91 364.02 C-259.71 359.38 -256.46 354.78 -253.2 350.18 C-247.31 341.88 -241.58 333.46 -235.88 325.02 C-232.15 319.52 -228.4 314.05 -224.58 308.62 C-215.34 295.47 -206.21 282.26 -197.12 269.01 C-194.4 265.04 -191.68 261.08 -188.95 257.12 C-186.65 253.77 -184.34 250.41 -182.04 247.05 C-177.63 240.61 -173.2 234.2 -168.64 227.87 C-165.75 223.86 -162.92 219.81 -160.2 215.68 C-155.56 208.65 -150.72 201.75 -145.89 194.83 C-141.92 189.13 -137.95 183.42 -134.01 177.68 C-133.58 177.05 -133.14 176.42 -132.7 175.76 C-130.96 173.23 -129.22 170.7 -127.49 168.17 C-122.45 160.8 -117.37 153.46 -112.2 146.18 C-107.1 139 -102.14 131.73 -97.2 124.43 C-88.27 111.25 -88.27 111.25 -83.7 104.93 C-78.93 98.32 -74.35 91.59 -69.78 84.85 C-65.17 78.07 -60.51 71.34 -55.83 64.62 C-49.81 56 -43.86 47.35 -37.96 38.65 C-34.55 33.62 -31.09 28.63 -27.6 23.65 C-25.78 21.05 -23.98 18.43 -22.19 15.8 C-20.38 13.18 -20.38 13.18 -18.58 10.56 C-17.97 9.66 -17.35 8.76 -16.73 7.83 C-16.13 6.98 -15.54 6.12 -14.94 5.24 C-14.41 4.47 -13.88 3.7 -13.34 2.91 C-9.99 -1.05 -4.76 -0.02 0 0 Z M-452.83 527.12 C-451.83 529.12 -451.83 529.12 -451.83 529.12 Z M-214.83 539.12 C-215.56 539.4 -216.3 539.67 -217.05 539.96 C-226.29 543.95 -234.4 552.16 -238.83 561.12 C-246.18 579.82 -246.85 597.52 -239.58 616.43 C-233.68 629.66 -223.85 637.19 -210.64 642.37 C-207.89 643.1 -205.65 643.29 -202.83 643.12 C-202.83 643.45 -202.83 643.78 -202.83 644.12 C-199.68 644.15 -196.54 644.17 -193.39 644.18 C-192.49 644.19 -191.59 644.2 -190.67 644.21 C-189.39 644.21 -189.39 644.21 -188.08 644.22 C-186.89 644.23 -186.89 644.23 -185.68 644.23 C-183.81 644.33 -183.81 644.33 -182.83 643.12 C-181.09 642.9 -181.09 642.9 -179.33 642.68 C-178.17 642.5 -177.02 642.31 -175.83 642.12 C-175.5 641.46 -175.17 640.8 -174.83 640.12 C-173.01 639.22 -171.18 638.38 -169.33 637.56 C-159.86 632.91 -154.05 626.35 -149.02 617.19 C-147.83 615.12 -147.83 615.12 -145.83 613.12 C-140.05 597.27 -141.07 577.24 -147.95 562 C-155.01 549.11 -164.26 541.63 -178.01 536.68 C-190.55 533.22 -202.82 534.29 -214.83 539.12 Z M-455.83 537.12 C-454.83 540.12 -454.83 540.12 -454.83 540.12 Z M-456.83 541.12 C-455.83 545.12 -455.83 545.12 -455.83 545.12 Z M-457.83 546.12 C-456.83 550.12 -456.83 550.12 -456.83 550.12 Z M-249.2 804.09 C-261.76 818.25 -264.57 836.55 -263.96 854.86 C-262.99 871.11 -256.14 886.18 -244.41 897.44 C-233.62 906.46 -221.87 912.29 -207.83 913.12 C-207.83 913.45 -207.83 913.78 -207.83 914.12 C-198.1 914.93 -188.54 915.56 -178.83 914.12 C-178.5 913.79 -178.17 913.46 -177.83 913.12 C-175.83 912.86 -173.83 912.6 -171.83 912.36 C-167.76 912 -167.76 912 -164.56 909.74 C-162.37 907.69 -160.14 906.82 -157.39 905.62 C-145.74 899.91 -137.98 890.75 -130.83 880.12 C-130.27 879.42 -129.72 878.72 -129.15 878 C-127.16 875.18 -127.16 872.53 -126.83 869.12 C-126.64 867.47 -126.45 865.83 -126.26 864.18 C-126.12 862.83 -125.97 861.47 -125.83 860.12 C-125.17 860.12 -124.51 860.12 -123.83 860.12 C-123.14 838.84 -124.12 819.3 -139.2 802.75 C-141.04 800.82 -142.92 798.97 -144.83 797.12 C-145.45 796.51 -146.07 795.91 -146.72 795.28 C-157.84 785.84 -174.69 781.96 -188.83 781.12 C-189.54 781.08 -190.26 781.04 -191 780.99 C-213.07 780.37 -234.11 787.83 -249.2 804.09 Z M-471.83 791.12 C-470.83 793.12 -470.83 793.12 -470.83 793.12 Z M-473.83 796.12 C-472.83 798.12 -472.83 798.12 -472.83 798.12 Z M-474.83 799.12 C-473.83 801.12 -473.83 801.12 -473.83 801.12 Z M-475.83 802.12 C-474.83 804.12 -474.83 804.12 -474.83 804.12 Z M-478.83 813.12 C-477.83 815.12 -477.83 815.12 -477.83 815.12 Z " fill="#F9FCFE" transform="translate(707.8267059326172,109.87974548339844)"/>
<path d="M0 0 C1.37 -0 1.37 -0 2.77 -0 C5.84 -0 8.91 0 11.98 0.01 C14.18 0.01 16.38 0.01 18.58 0.01 C24.55 0.01 30.53 0.01 36.51 0.02 C42.75 0.03 48.99 0.03 55.23 0.03 C65.71 0.03 76.19 0.04 86.68 0.04 C97.47 0.05 108.27 0.06 119.06 0.07 C119.73 0.07 120.39 0.07 121.08 0.07 C124.42 0.07 127.75 0.07 131.09 0.07 C158.79 0.08 186.48 0.1 214.17 0.12 C212.91 3.37 211.62 6.2 209.65 9.08 C208.89 10.2 208.89 10.2 208.11 11.35 C207.56 12.15 207.01 12.96 206.44 13.78 C205.86 14.64 205.29 15.49 204.69 16.37 C203.44 18.2 202.2 20.04 200.94 21.87 C197.62 26.75 194.31 31.65 190.99 36.54 C190.33 37.52 189.66 38.51 188.97 39.53 C183.02 48.32 177.17 57.17 171.36 66.06 C169.49 68.91 167.63 71.76 165.76 74.61 C165.3 75.31 164.84 76.01 164.37 76.74 C159.12 84.75 153.8 92.72 148.49 100.68 C147.99 101.42 147.5 102.16 146.99 102.92 C143.39 108.32 139.78 113.72 136.17 119.12 C131.61 125.95 127.05 132.79 122.49 139.62 C121.61 140.93 121.61 140.93 120.72 142.27 C111.06 156.75 101.48 171.28 91.92 185.82 C82.34 200.38 72.64 214.85 62.87 229.28 C50.43 247.66 38.22 266.19 26.03 284.74 C19.07 295.32 12.04 305.86 5 316.39 C1.74 321.27 -1.52 326.15 -4.77 331.03 C-7 334.39 -9.25 337.75 -11.5 341.09 C-11.93 341.74 -12.37 342.39 -12.82 343.06 C-13.97 344.77 -15.12 346.49 -16.28 348.2 C-19.9 353.77 -23.34 359.46 -26.83 365.12 C1.22 365.12 29.27 365.12 58.17 365.12 C58.16 358.06 58.15 350.99 58.14 343.72 C58.13 339.26 58.13 334.79 58.12 330.33 C58.12 323.24 58.11 316.15 58.1 309.07 C58.09 303.35 58.08 297.64 58.08 291.93 C58.08 289.74 58.07 287.56 58.07 285.38 C58.06 282.33 58.06 279.28 58.06 276.23 C58.06 275.32 58.05 274.4 58.05 273.46 C58.06 267.23 58.06 267.23 59.17 266.12 C61.79 266.02 64.38 265.99 66.99 265.99 C67.82 265.99 68.65 265.99 69.51 265.99 C72.31 265.98 75.11 265.99 77.91 265.99 C79.9 265.99 81.9 265.99 83.9 265.99 C89.35 265.98 94.79 265.98 100.23 265.99 C105.92 265.99 111.6 265.99 117.28 265.98 C126.83 265.98 136.38 265.99 145.92 265.99 C156.98 266 168.03 265.99 179.09 265.99 C188.56 265.98 198.03 265.98 207.51 265.99 C213.17 265.99 218.84 265.99 224.5 265.98 C229.83 265.98 235.15 265.98 240.48 265.99 C242.44 265.99 244.4 265.99 246.36 265.99 C249.02 265.98 251.69 265.99 254.35 265.99 C255.14 265.99 255.93 265.99 256.74 265.99 C262.06 266.01 262.06 266.01 263.17 267.12 C263.27 270.16 263.3 273.19 263.29 276.23 C263.29 277.19 263.29 278.14 263.29 279.13 C263.29 282.3 263.28 285.48 263.27 288.66 C263.27 290.85 263.27 293.05 263.27 295.24 C263.26 301.03 263.25 306.83 263.24 312.62 C263.23 319.56 263.23 326.5 263.22 333.45 C263.21 344 263.19 354.56 263.17 365.12 C291.22 365.12 319.27 365.12 348.17 365.12 C348.17 420.89 348.17 476.66 348.17 534.12 C320.12 534.12 292.07 534.12 263.17 534.12 C263.17 570.42 263.17 606.72 263.17 644.12 C195.85 644.45 128.53 644.78 59.17 645.12 C59.8 641.35 60.33 638.29 61.48 634.76 C61.73 633.96 61.98 633.17 62.24 632.35 C62.51 631.51 62.77 630.67 63.05 629.81 C75.69 588.76 72 541.94 52.59 503.51 C44.94 489.2 35.27 475.94 24.17 464.12 C23.48 463.38 23.48 463.38 22.76 462.61 C7.54 446.52 -10.28 434.29 -29.83 424.12 C-30.66 423.68 -31.49 423.24 -32.34 422.79 C-61.57 407.46 -93.7 398.92 -126.08 393.37 C-127.24 393.17 -128.39 392.97 -129.59 392.77 C-149.31 389.57 -168.88 388.77 -188.84 388.8 C-191.57 388.81 -194.3 388.8 -197.03 388.78 C-222.08 388.62 -246.29 390.89 -270.94 395.35 C-274.61 395.98 -278.09 396.3 -281.83 396.12 C-282.83 393.12 -282.83 393.12 -281.92 391.29 C-281.44 390.61 -280.96 389.93 -280.47 389.23 C-279.93 388.47 -279.4 387.7 -278.85 386.91 C-278.27 386.1 -277.68 385.28 -277.08 384.43 C-275.86 382.7 -274.65 380.97 -273.44 379.24 C-272.83 378.38 -272.22 377.51 -271.59 376.62 C-269.56 373.74 -267.57 370.84 -265.59 367.93 C-261.52 361.97 -257.38 356.07 -253.2 350.18 C-247.31 341.88 -241.58 333.46 -235.88 325.02 C-232.15 319.52 -228.4 314.05 -224.58 308.62 C-215.34 295.47 -206.21 282.26 -197.12 269.01 C-194.4 265.04 -191.68 261.08 -188.95 257.12 C-186.65 253.77 -184.34 250.41 -182.04 247.05 C-177.63 240.61 -173.2 234.2 -168.64 227.87 C-165.75 223.86 -162.92 219.81 -160.2 215.68 C-155.56 208.65 -150.72 201.75 -145.89 194.83 C-141.92 189.13 -137.95 183.42 -134.01 177.68 C-133.58 177.05 -133.14 176.42 -132.7 175.76 C-130.96 173.23 -129.22 170.7 -127.49 168.17 C-122.45 160.8 -117.37 153.46 -112.2 146.18 C-107.1 139 -102.14 131.73 -97.2 124.43 C-88.27 111.25 -88.27 111.25 -83.7 104.93 C-78.93 98.32 -74.35 91.59 -69.78 84.85 C-65.17 78.07 -60.51 71.34 -55.83 64.62 C-49.81 56 -43.86 47.35 -37.96 38.65 C-34.55 33.62 -31.09 28.63 -27.6 23.65 C-25.78 21.05 -23.98 18.43 -22.19 15.8 C-20.38 13.18 -20.38 13.18 -18.58 10.56 C-17.97 9.66 -17.35 8.76 -16.73 7.83 C-16.13 6.98 -15.54 6.12 -14.94 5.24 C-14.41 4.47 -13.88 3.7 -13.34 2.91 C-9.99 -1.05 -4.76 -0.02 0 0 Z " fill="#29E5EE" transform="translate(707.8267059326172,109.87974548339844)"/>
<path d="M0 0 C72.27 0 144.54 0 219 0 C219 0.33 219 0.66 219 1 C146.73 1 74.46 1 0 1 C0 0.67 0 0.34 0 0 Z " fill="#29E5EE" transform="translate(699,108)"/>
<path d="M0 0 C65.34 0 130.68 0 198 0 C198 0.33 198 0.66 198 1 C132.66 1 67.32 1 0 1 C0 0.67 0 0.34 0 0 Z " fill="#29E5EE" transform="translate(767,374)"/>
<path d="M0 0 C0.33 0 0.66 0 1 0 C1 32.01 1 64.02 1 97 C-26.39 97 -53.78 97 -82 97 C-82 96.67 -82 96.34 -82 96 C-54.94 96 -27.88 96 0 96 C0 64.32 0 32.64 0 0 Z " fill="#29E5EE" transform="translate(764,377)"/>
<path d="M0 0 C26.73 0 53.46 0 81 0 C81 0.33 81 0.66 81 1 C54.27 1 27.54 1 0 1 C0 0.67 0 0.34 0 0 Z " fill="#29E5EE" transform="translate(972,473)"/>
<path d="M0 0 C1.65 0 3.3 0 5 0 C5 0.33 5 0.66 5 1 C3.35 1 1.7 1 0 1 C0 0.67 0 0.34 0 0 Z " fill="#FAFDFF" transform="translate(530,1021)"/>
<path d="M0 0 C0.33 0 0.66 0 1 0 C1 1.65 1 3.3 1 5 C0.67 5 0.34 5 0 5 C0 3.35 0 1.7 0 0 Z " fill="#FAFDFF" transform="translate(225,936)"/>
<path d="M0 0 C0.33 0 0.66 0 1 0 C1 1.65 1 3.3 1 5 C0.67 5 0.34 5 0 5 C0 3.35 0 1.7 0 0 Z " fill="#FAFDFF" transform="translate(226,930)"/>
<path d="M0 0 C0.33 0 0.66 0 1 0 C1 1.65 1 3.3 1 5 C0.67 5 0.34 5 0 5 C0 3.35 0 1.7 0 0 Z " fill="#FAFDFF" transform="translate(563,705)"/>
<path d="M0 0 C4 1 4 1 4 1 Z " fill="#FAFDFF" transform="translate(525,751)"/>
<path d="M0 0 C1 4 1 4 1 4 Z " fill="#FAFDFF" transform="translate(561,716)"/>
<path d="M0 0 C1 4 1 4 1 4 Z " fill="#FAFDFF" transform="translate(562,712)"/>
<path d="M0 0 C3 1 3 1 3 1 Z " fill="#FAFDFF" transform="translate(539,1019)"/>
<path d="" fill="#FAFDFF" transform="translate(0,0)"/>
<path d="" fill="#FAFDFF" transform="translate(0,0)"/>
<path d="" fill="#FAFDFF" transform="translate(0,0)"/>
<path d="" fill="#FAFDFF" transform="translate(0,0)"/>
<path d="M0 0 C3 1 3 1 3 1 Z " fill="#FAFDFF" transform="translate(394,513)"/>
<path d="M0 0 C3 1 3 1 3 1 Z " fill="#FAFDFF" transform="translate(401,511)"/>
<path d="M0 0 C0.99 0.5 0.99 0.5 2 1 C1.01 1.5 1.01 1.5 0 2 C0 1.34 0 0.68 0 0 Z " fill="#29E5EE" transform="translate(765,375)"/>
<path d="M0 0 C0.99 0.5 0.99 0.5 2 1 C1.01 1.5 1.01 1.5 0 2 C0 1.34 0 0.68 0 0 Z " fill="#29E5EE" transform="translate(697,109)"/>
<path d="" fill="#FAFDFF" transform="translate(0,0)"/>
<path d="" fill="#FAFDFF" transform="translate(0,0)"/>
<path d="" fill="#FAFDFF" transform="translate(0,0)"/>
<path d="" fill="#FAFDFF" transform="translate(0,0)"/>
<path d="" fill="#FAFDFF" transform="translate(0,0)"/>
<path d="" fill="#FAFDFF" transform="translate(0,0)"/>
<path d="" fill="#FAFDFF" transform="translate(0,0)"/>
<path d="" fill="#FAFDFF" transform="translate(0,0)"/>
</svg>
