<?xml version="1.0" encoding="UTF-8"?>
<!-- Generator: visioncortex VTracer 0.6.3 -->
<svg version="1.1" xmlns="http://www.w3.org/2000/svg" width="1280" height="350">
<path d="M0 0 C1.25 0.03 2.5 0.06 3.8 0.09 C4.83 0.11 4.83 0.11 5.9 0.12 C8.18 0.16 10.46 0.24 12.75 0.32 C14.33 0.35 15.92 0.38 17.5 0.41 C21.67 0.49 25.84 0.61 30.01 0.74 C34.27 0.86 38.52 0.94 42.78 1.04 C51.13 1.22 59.48 1.44 67.82 1.68 C64.53 7.83 60.95 13.67 57.01 19.42 C56.45 20.24 55.89 21.07 55.32 21.92 C54.12 23.69 52.91 25.46 51.71 27.23 C48.46 32 45.23 36.78 42 41.55 C41.33 42.54 40.66 43.53 39.97 44.55 C31.35 57.32 22.9 70.2 14.46 83.08 C13.31 84.82 12.17 86.56 11.03 88.3 C10.49 89.12 9.95 89.94 9.39 90.79 C6.98 94.47 4.54 98.12 2 101.72 C1.57 102.32 1.15 102.93 0.71 103.55 C-0.41 105.12 -1.54 106.69 -2.67 108.25 C-4.44 110.63 -4.44 110.63 -4.18 113.68 C3.08 113.68 10.34 113.68 17.82 113.68 C17.82 104.11 17.82 94.54 17.82 84.68 C20.58 83.3 22.75 83.61 25.83 83.66 C27.73 83.69 27.73 83.69 29.66 83.72 C31.04 83.75 32.42 83.78 33.8 83.8 C35.21 83.83 36.62 83.85 38.03 83.88 C41.74 83.94 45.45 84.01 49.17 84.08 C53.62 84.16 58.07 84.24 62.52 84.31 C69.29 84.43 76.06 84.56 82.82 84.68 C82.82 94.25 82.82 103.82 82.82 113.68 C90.63 113.64 90.63 113.64 98.44 113.59 C99.89 113.59 99.89 113.59 101.38 113.59 C102.37 113.58 103.37 113.58 104.39 113.57 C106.82 113.68 106.82 113.68 108.82 114.68 C108.82 132.17 108.82 149.66 108.82 167.68 C100.57 167.68 92.32 167.68 83.82 167.68 C83.49 178.9 83.16 190.12 82.82 201.68 C62.03 201.68 41.24 201.68 19.82 201.68 C18.83 204.65 18.83 204.65 17.82 207.68 C15.76 210.57 15.76 210.57 13.39 213.37 C12.21 214.77 12.21 214.77 11.01 216.2 C9.34 218.1 7.65 219.93 5.82 221.68 C7.11 222.81 7.11 222.81 8.42 223.96 C21.05 235.19 29.98 246.56 31.03 264.09 C31.25 281.35 27.25 294.7 15.23 307.34 C-4.39 326.48 -30.54 332.08 -57.18 332 C-59.41 332 -61.64 332.02 -63.88 332.04 C-77.38 332.11 -90.68 330.42 -103.49 325.93 C-104.23 325.68 -104.98 325.42 -105.75 325.16 C-123.4 318.82 -138.37 305.97 -146.99 289.27 C-148.46 286.08 -149.41 283.11 -150.18 279.68 C-150.44 278.81 -150.44 278.81 -150.7 277.92 C-153.7 263.81 -149.63 249.45 -142.17 237.45 C-137.76 231.33 -132.76 226.39 -126.18 222.68 C-126.84 217.57 -130.7 214.75 -134.15 211.22 C-136.26 208.58 -136.84 207.01 -137.18 203.68 C-137.84 203.68 -138.5 203.68 -139.18 203.68 C-139.38 202.97 -139.59 202.26 -139.8 201.53 C-140.07 200.61 -140.34 199.69 -140.61 198.75 C-140.88 197.83 -141.15 196.91 -141.42 195.97 C-141.97 193.74 -141.97 193.74 -143.18 192.68 C-144.18 181.61 -144.58 169.65 -139.18 159.68 C-138.78 158.86 -138.37 158.04 -137.96 157.2 C-128.89 140.27 -112.78 131.53 -95.18 125.68 C-93.44 125.38 -93.44 125.38 -91.68 125.07 C-86.64 123.07 -84.92 119.8 -82.11 115.31 C-80.98 113.57 -79.85 111.84 -78.71 110.11 C-78.13 109.21 -77.55 108.32 -76.95 107.39 C-74.09 103.02 -71.07 98.76 -68.05 94.5 C-63.5 88.01 -58.98 81.51 -54.5 74.97 C-50.42 69.02 -46.3 63.1 -42.18 57.18 C-37.23 50.09 -32.3 42.98 -27.41 35.84 C-22.53 28.73 -17.59 21.65 -12.66 14.57 C-12 13.64 -11.35 12.7 -10.68 11.74 C-9.81 10.49 -9.81 10.49 -8.92 9.22 C-7.08 6.65 -7.08 6.65 -5.5 3.56 C-3.18 0.68 -3.18 0.68 0 0 Z M-69.18 170.68 C-73.58 175.09 -75.27 179.35 -75.61 185.5 C-75.49 190.92 -73.9 194.73 -70.18 198.68 C-65.36 201.37 -59.58 201.28 -54.18 200.68 C-50.92 199.23 -48.46 197.43 -46.18 194.68 C-45.07 191.37 -44.86 188.48 -44.61 185 C-44.53 183.82 -44.45 182.64 -44.36 181.42 C-44.27 180.07 -44.27 180.07 -44.18 178.68 C-44.84 178.68 -45.5 178.68 -46.18 178.68 C-46.28 177.92 -46.38 177.16 -46.49 176.37 C-47.26 173.34 -47.68 172.51 -50.18 170.68 C-57.32 167.17 -62.21 167.09 -69.18 170.68 Z M-44.18 183.68 C-43.18 186.68 -43.18 186.68 -43.18 186.68 Z M-78.05 252.96 C-81.22 258.65 -82.38 264.26 -81.18 270.68 C-79.56 276.06 -77.44 280.55 -72.36 283.31 C-65.22 285.81 -55.64 286.32 -48.47 283.7 C-44.94 281.58 -42.27 279.25 -40.18 275.68 C-39.65 272.89 -39.26 270.25 -38.99 267.43 C-38.91 266.69 -38.83 265.94 -38.74 265.18 C-38.54 263.35 -38.36 261.52 -38.18 259.68 C-38.84 259.35 -39.5 259.02 -40.18 258.68 C-40.3 257.94 -40.42 257.2 -40.55 256.43 C-41.38 252.81 -42.5 251.29 -45.18 248.68 C-55.81 242 -69.67 242.78 -78.05 252.96 Z M-150.18 260.68 C-149.18 264.68 -149.18 264.68 -149.18 264.68 Z M-38.18 264.68 C-37.18 266.68 -37.18 266.68 -37.18 266.68 Z M-150.18 271.68 C-149.18 275.68 -149.18 275.68 -149.18 275.68 Z M-62.18 285.68 C-62.18 286.01 -62.18 286.34 -62.18 286.68 C-60.2 286.68 -58.22 286.68 -56.18 286.68 C-56.18 286.35 -56.18 286.02 -56.18 285.68 C-58.16 285.68 -60.14 285.68 -62.18 285.68 Z " fill="#FAFCFC" transform="translate(192.17645263671875,8.316436767578125)"/>
<path d="M0 0 C4.21 0.23 8.42 0.36 12.63 0.5 C20.87 0.79 29.1 1.18 37.33 1.64 C34.04 7.79 30.46 13.62 26.52 19.37 C25.96 20.2 25.4 21.02 24.83 21.87 C23.63 23.64 22.42 25.41 21.22 27.18 C17.97 31.95 14.74 36.73 11.5 41.51 C10.83 42.5 10.16 43.49 9.48 44.51 C0.86 57.27 -7.59 70.15 -16.04 83.03 C-17.18 84.77 -18.32 86.51 -19.47 88.25 C-20 89.07 -20.54 89.9 -21.1 90.74 C-23.51 94.42 -25.95 98.07 -28.49 101.67 C-29.13 102.57 -29.13 102.57 -29.78 103.5 C-30.9 105.07 -32.03 106.64 -33.17 108.21 C-34.93 110.58 -34.93 110.58 -34.67 113.64 C-27.41 113.64 -20.15 113.64 -12.67 113.64 C-12.67 104.07 -12.67 94.5 -12.67 84.64 C-9.91 83.26 -7.75 83.56 -4.66 83.61 C-2.77 83.64 -2.77 83.64 -0.84 83.67 C0.55 83.7 1.93 83.73 3.31 83.76 C4.72 83.78 6.13 83.8 7.54 83.83 C11.25 83.89 14.96 83.96 18.67 84.03 C23.13 84.11 27.58 84.19 32.03 84.27 C38.8 84.38 45.57 84.51 52.33 84.64 C52.33 94.21 52.33 103.78 52.33 113.64 C60.14 113.6 60.14 113.6 67.95 113.54 C69.4 113.54 69.4 113.54 70.89 113.54 C71.88 113.53 72.88 113.53 73.9 113.52 C76.33 113.64 76.33 113.64 78.33 114.64 C78.33 132.13 78.33 149.62 78.33 167.64 C70.08 167.64 61.83 167.64 53.33 167.64 C53 178.86 52.67 190.08 52.33 201.64 C31.54 201.64 10.75 201.64 -10.67 201.64 C-9.68 195.2 -9.68 195.2 -8.67 188.64 C-7.88 170.79 -12.58 156.74 -24.66 143.44 C-35.79 132.71 -49.92 127.95 -64.67 124.64 C-65.71 124.39 -66.75 124.14 -67.82 123.89 C-83.41 120.86 -101.13 121.52 -116.67 124.64 C-117 123.65 -117.33 122.66 -117.67 121.64 C-116.4 119.5 -116.4 119.5 -114.42 116.95 C-113.67 115.96 -112.92 114.97 -112.15 113.95 C-111.75 113.41 -111.34 112.88 -110.92 112.32 C-108.75 109.4 -106.72 106.39 -104.67 103.39 C-100.04 96.61 -95.36 89.87 -90.67 83.14 C-86.11 76.59 -81.55 70.03 -77.04 63.45 C-73 57.55 -68.9 51.68 -64.79 45.82 C-59.17 37.81 -53.61 29.74 -48.09 21.65 C-47.54 20.91 -46.99 20.17 -46.43 19.41 C-44.93 17.04 -44.06 15.11 -43.1 12.51 C-35.49 -5.18 -16.18 -0.94 0 0 Z " fill="#1BE5EE" transform="translate(222.668212890625,8.36492919921875)"/>
<path d="M0 0 C1.24 -0.04 1.24 -0.04 2.5 -0.09 C8.57 -0.15 12.66 1.17 17.81 4.31 C18.8 4.89 19.79 5.47 20.81 6.06 C21.47 6.47 22.13 6.89 22.81 7.31 C22.96 6.51 23.1 5.7 23.25 4.88 C23.81 2.31 23.81 2.31 24.81 1.31 C26.93 1.21 29.06 1.18 31.18 1.18 C32.48 1.18 33.78 1.18 35.11 1.18 C35.79 1.18 36.47 1.18 37.17 1.18 C39.24 1.19 41.31 1.18 43.38 1.18 C44.67 1.18 45.97 1.18 47.31 1.18 C49.11 1.18 49.11 1.18 50.94 1.18 C53.81 1.31 53.81 1.31 55.81 2.31 C55.86 11.08 55.89 19.86 55.92 28.63 C55.93 32.7 55.94 36.78 55.96 40.85 C55.99 44.79 56 48.74 56 52.68 C56.01 54.17 56.01 55.67 56.02 57.16 C56.13 72.68 55.85 87.64 44.71 99.46 C33.2 110.67 19.02 112.61 3.53 112.46 C-8.84 111.96 -23.23 110.28 -33.19 102.31 C-32.53 97.31 -30.44 93.08 -28.31 88.56 C-27.96 87.78 -27.61 87 -27.25 86.2 C-26.9 85.46 -26.55 84.72 -26.2 83.95 C-25.88 83.28 -25.57 82.6 -25.25 81.91 C-24.19 80.31 -24.19 80.31 -21.19 79.31 C-19.09 80.27 -19.09 80.27 -16.56 81.69 C-6.86 86.32 5.67 86.81 15.81 83.31 C18.59 81.11 19.48 78.97 20.5 75.62 C20.88 74.41 20.88 74.41 21.26 73.18 C21.44 72.56 21.63 71.95 21.81 71.31 C21.11 71.93 20.41 72.55 19.69 73.19 C13.8 77.54 8.05 77.65 1 77.62 C0.15 77.64 -0.7 77.66 -1.58 77.67 C-12.12 77.68 -19.46 74.39 -27.19 67.31 C-33.5 60.97 -37.28 55.42 -38.19 46.31 C-38.52 46.31 -38.85 46.31 -39.19 46.31 C-39.79 34.01 -38.92 24 -30.81 14.09 C-22.32 4.8 -12.51 0.14 0 0 Z M22.81 7.31 C23.81 10.31 23.81 10.31 23.81 10.31 Z M-1 30.75 C-4.16 34.91 -4.65 38.04 -4.19 43.31 C-2.49 47.14 -1.05 48.81 2.81 50.31 C8.58 51.01 13.92 51.31 19.12 48.56 C21.69 43.63 21.53 38.77 20.81 33.31 C19.52 29.73 19.01 29.41 15.44 27.56 C9.17 25.4 4.2 26.63 -1 30.75 Z M-38.19 31.31 C-37.19 33.31 -37.19 33.31 -37.19 33.31 Z M21.81 36.31 C21.81 38.29 21.81 40.27 21.81 42.31 C22.14 42.31 22.47 42.31 22.81 42.31 C22.81 40.33 22.81 38.35 22.81 36.31 C22.48 36.31 22.15 36.31 21.81 36.31 Z M6.81 51.31 C6.81 51.64 6.81 51.97 6.81 52.31 C8.46 52.31 10.11 52.31 11.81 52.31 C11.81 51.98 11.81 51.65 11.81 51.31 C10.16 51.31 8.51 51.31 6.81 51.31 Z M-2.19 86.31 C1.81 87.31 1.81 87.31 1.81 87.31 Z " fill="#FAFCFC" transform="translate(518.1875,216.6875)"/>
<path d="M0 0 C1.51 0.01 3.01 0.04 4.52 0.06 C5.33 0.07 6.15 0.08 7 0.09 C9.72 0.12 12.44 0.16 15.16 0.2 C17.05 0.23 18.93 0.25 20.81 0.27 C25.77 0.34 30.74 0.41 35.7 0.48 C40.76 0.55 45.82 0.61 50.88 0.68 C60.82 0.81 70.75 0.94 80.69 1.08 C80.69 9.66 80.69 18.24 80.69 27.08 C64.52 27.08 48.35 27.08 31.69 27.08 C31.36 30.38 31.03 33.68 30.69 37.08 C31.92 37.07 33.14 37.06 34.41 37.05 C38.95 37.01 43.5 36.99 48.04 36.97 C50.01 36.96 51.98 36.95 53.95 36.93 C56.77 36.91 59.6 36.9 62.43 36.89 C63.31 36.88 64.19 36.87 65.1 36.86 C65.92 36.86 66.74 36.86 67.59 36.86 C68.31 36.85 69.03 36.85 69.77 36.84 C71.69 37.08 71.69 37.08 74.69 39.08 C75.03 41.51 75.03 41.51 74.98 44.53 C74.97 45.6 74.96 46.68 74.95 47.79 C74.93 48.92 74.9 50.05 74.88 51.21 C74.86 52.91 74.86 52.91 74.84 54.65 C74.8 57.46 74.75 60.27 74.69 63.08 C73.42 63.11 72.16 63.13 70.85 63.16 C66.17 63.25 61.48 63.35 56.8 63.45 C54.77 63.5 52.74 63.54 50.71 63.58 C47.8 63.64 44.89 63.7 41.98 63.77 C40.61 63.79 40.61 63.79 39.21 63.82 C35.12 63.51 35.12 63.51 31.69 65.08 C31.46 66.76 31.28 68.45 31.13 70.14 C31.04 71.06 30.96 71.98 30.87 72.93 C30.78 74 30.78 74 30.69 75.08 C31.3 75.08 31.91 75.07 32.54 75.07 C38.86 75.02 45.19 74.99 51.52 74.97 C53.88 74.96 56.24 74.95 58.6 74.93 C62 74.91 65.39 74.9 68.78 74.89 C69.84 74.88 70.9 74.87 71.99 74.86 C73.46 74.86 73.46 74.86 74.97 74.86 C75.83 74.85 76.7 74.85 77.59 74.84 C79.69 75.08 79.69 75.08 81.69 77.08 C81.69 85.66 81.69 94.24 81.69 103.08 C53.64 103.08 25.59 103.08 -3.31 103.08 C-4.22 100.35 -4.43 98.77 -4.44 95.97 C-4.44 94.72 -4.44 94.72 -4.44 93.44 C-4.44 92.52 -4.44 91.61 -4.44 90.67 C-4.44 89.71 -4.44 88.74 -4.44 87.75 C-4.45 84.55 -4.45 81.36 -4.44 78.17 C-4.44 75.96 -4.44 73.74 -4.44 71.53 C-4.45 66.89 -4.44 62.25 -4.44 57.61 C-4.43 51.65 -4.44 45.69 -4.44 39.73 C-4.45 35.16 -4.45 30.6 -4.44 26.03 C-4.44 23.83 -4.44 21.63 -4.45 19.43 C-4.45 16.37 -4.44 13.3 -4.44 10.24 C-4.44 8.86 -4.44 8.86 -4.44 7.46 C-4.42 0.11 -4.42 0.11 0 0 Z " fill="#FBFDFD" transform="translate(343.30921936035156,195.91770935058594)"/>
<path d="M0 0 C1.39 0.04 2.78 0.09 4.17 0.14 C5.27 0.18 5.27 0.18 6.39 0.21 C8.73 0.29 11.08 0.38 13.42 0.46 C15 0.51 16.59 0.57 18.18 0.62 C22.07 0.75 25.96 0.88 29.86 1.02 C30.19 11.25 30.52 21.48 30.86 32.02 C33.31 32.02 34.36 31.27 36.48 30.08 C40.58 28.01 44.29 27.22 48.86 27.02 C49.86 26.95 50.87 26.87 51.9 26.8 C61 26.39 66.99 28.14 74.11 33.82 C80.38 39.59 84.58 46.99 84.98 55.63 C84.98 56.61 84.97 57.6 84.97 58.62 C84.97 60.3 84.97 60.3 84.97 62.01 C84.97 63.22 84.96 64.42 84.95 65.66 C84.95 66.9 84.95 68.14 84.95 69.41 C84.95 72.69 84.94 75.97 84.93 79.26 C84.92 82.61 84.91 85.96 84.91 89.31 C84.9 95.88 84.88 102.45 84.86 109.02 C73.97 109.02 63.08 109.02 51.86 109.02 C50.15 105.6 50.63 101.69 50.58 97.92 C50.55 96.55 50.55 96.55 50.52 95.16 C50.46 92.24 50.41 89.32 50.36 86.4 C50.31 83.5 50.25 80.6 50.19 77.7 C50.16 75.89 50.13 74.09 50.1 72.28 C49.99 67.12 49.59 62.13 48.86 57.02 C43.14 55.93 43.14 55.93 37.54 57.15 C33.43 60.02 31.86 63.21 30.86 68.02 C30.75 69.43 30.68 70.83 30.65 72.24 C30.63 73.06 30.61 73.88 30.59 74.73 C30.57 75.6 30.56 76.48 30.54 77.38 C30.52 78.29 30.5 79.19 30.48 80.12 C30.41 83 30.35 85.89 30.29 88.77 C30.25 90.73 30.21 92.69 30.16 94.64 C30.06 99.44 29.96 104.23 29.86 109.02 C18.97 109.02 8.08 109.02 -3.14 109.02 C-4.31 106.69 -4.27 105.35 -4.27 102.76 C-4.27 101.87 -4.28 100.98 -4.28 100.06 C-4.28 99.07 -4.27 98.09 -4.27 97.08 C-4.27 96.05 -4.28 95.01 -4.28 93.95 C-4.28 90.53 -4.28 87.1 -4.28 83.67 C-4.28 81.3 -4.28 78.93 -4.28 76.56 C-4.28 71.59 -4.28 66.61 -4.27 61.64 C-4.27 55.25 -4.27 48.85 -4.28 42.46 C-4.28 37.56 -4.28 32.67 -4.28 27.77 C-4.28 25.41 -4.28 23.05 -4.28 20.7 C-4.28 17.41 -4.28 14.12 -4.27 10.83 C-4.27 9.85 -4.28 8.87 -4.28 7.85 C-4.28 6.96 -4.27 6.07 -4.27 5.15 C-4.27 4.37 -4.27 3.6 -4.27 2.79 C-4.04 -0.39 -3.24 0.02 0 0 Z M50.86 63.02 C51.86 65.02 51.86 65.02 51.86 65.02 Z " fill="#FAFCFC" transform="translate(590.142822265625,189.978271484375)"/>
<path d="M0 0 C4.48 -0.15 8.97 -0.26 13.45 -0.33 C14.98 -0.36 16.5 -0.4 18.03 -0.45 C20.22 -0.53 22.41 -0.56 24.61 -0.59 C25.29 -0.62 25.97 -0.65 26.67 -0.68 C28.61 -0.68 28.61 -0.68 32 0 C35.62 4.06 37.37 8.98 39.23 14.02 C39.66 15.14 39.66 15.14 40.09 16.28 C40.98 18.65 41.87 21.01 42.75 23.38 C43.36 24.99 43.97 26.6 44.57 28.21 C46.06 32.14 47.53 36.07 49 40 C51.66 33.67 54.28 27.33 56.82 20.96 C57.3 19.78 57.77 18.61 58.25 17.4 C59.23 14.97 60.19 12.53 61.16 10.1 C61.63 8.94 62.09 7.78 62.57 6.58 C63.2 5.01 63.2 5.01 63.84 3.4 C65 1 65 1 67 0 C69.08 -0.1 71.17 -0.13 73.25 -0.13 C74.5 -0.13 75.75 -0.14 77.03 -0.14 C78.34 -0.13 79.65 -0.13 81 -0.12 C82.31 -0.13 83.62 -0.13 84.97 -0.14 C86.84 -0.13 86.84 -0.13 88.75 -0.13 C89.9 -0.13 91.05 -0.13 92.23 -0.13 C95 0 95 0 97 1 C96.45 7.28 94.41 12.49 91.98 18.28 C91.58 19.27 91.17 20.26 90.75 21.28 C89.42 24.5 88.09 27.72 86.75 30.94 C85.83 33.15 84.92 35.37 84.01 37.59 C82.63 40.91 81.26 44.24 79.88 47.57 C77.21 54.04 74.57 60.53 71.99 67.04 C71.41 68.5 70.82 69.97 70.24 71.44 C69.44 73.44 68.65 75.44 67.87 77.44 C63.05 89.77 56.88 102.51 44.16 108.22 C32.11 112.56 20.13 111.58 8 108 C5.63 106.84 4.01 105.72 2 104 C2.5 98.27 4.83 94.06 7.56 89.12 C7.99 88.34 8.41 87.56 8.85 86.75 C9.89 84.83 10.94 82.91 12 81 C12.7 81.14 13.4 81.29 14.12 81.44 C19.87 82.56 25.15 83.22 31 83 C30.2 79.18 28.72 75.66 27.25 72.06 C25.23 67.08 23.27 62.09 21.38 57.06 C19.78 52.88 18.03 48.91 15.96 44.94 C14.47 41.93 13.28 38.82 12.06 35.7 C10.12 30.77 8.05 25.89 6 21 C5.1 18.85 4.21 16.71 3.31 14.56 C2.92 13.62 2.52 12.67 2.11 11.69 C1.75 10.8 1.38 9.92 1 9 C0.6 8.14 0.2 7.29 -0.21 6.4 C-1.1 3.7 -0.79 2.65 0 0 Z " fill="#FAFCFC" transform="translate(745,218)"/>
<path d="M0 0 C1.49 0.01 2.97 0.04 4.46 0.06 C5.27 0.07 6.08 0.08 6.92 0.09 C9.6 0.12 12.29 0.16 14.98 0.2 C16.84 0.23 18.7 0.25 20.56 0.27 C25.47 0.34 30.37 0.41 35.27 0.48 C40.27 0.55 45.27 0.61 50.27 0.68 C60.09 0.81 69.91 0.94 79.73 1.08 C79.73 9.66 79.73 18.24 79.73 27.08 C63.89 27.08 48.05 27.08 31.73 27.08 C32.22 35 32.22 35 32.73 43.08 C33.9 43.08 35.07 43.07 36.28 43.07 C40.61 43.05 44.95 43.04 49.28 43.03 C51.16 43.02 53.04 43.02 54.92 43.01 C57.61 42.99 60.31 42.99 63 42.98 C63.84 42.98 64.69 42.97 65.56 42.97 C71.5 42.97 71.5 42.97 73.73 44.08 C73.73 52.66 73.73 61.24 73.73 70.08 C59.87 70.41 46.01 70.74 31.73 71.08 C31.73 81.64 31.73 92.2 31.73 103.08 C20.18 103.08 8.63 103.08 -3.27 103.08 C-4.41 100.81 -4.4 99.57 -4.4 97.05 C-4.4 96.21 -4.4 95.37 -4.41 94.5 C-4.4 93.57 -4.4 92.65 -4.4 91.69 C-4.4 90.72 -4.4 89.74 -4.41 88.74 C-4.41 85.51 -4.41 82.28 -4.4 79.05 C-4.4 76.81 -4.41 74.57 -4.41 72.34 C-4.41 67.65 -4.41 62.95 -4.4 58.26 C-4.4 52.23 -4.4 46.2 -4.41 40.18 C-4.41 35.56 -4.41 30.94 -4.41 26.32 C-4.4 24.09 -4.41 21.87 -4.41 19.65 C-4.41 16.55 -4.41 13.44 -4.4 10.34 C-4.4 9.42 -4.4 8.49 -4.41 7.53 C-4.38 0.11 -4.38 0.11 0 0 Z " fill="#1BE5EE" transform="translate(894.2712554931641,195.91770935058594)"/>
<path d="M0 0 C1.23 0 2.47 0.01 3.74 0.01 C4.73 0.01 4.73 0.01 5.73 0.01 C7.13 0.02 8.52 0.02 9.91 0.04 C12.04 0.06 14.18 0.06 16.31 0.06 C26.76 0.1 26.76 0.1 29.05 1.24 C29.07 2.44 29.08 3.63 29.09 4.86 C29.15 9.33 29.23 13.8 29.31 18.27 C29.35 20.19 29.37 22.12 29.4 24.05 C29.43 26.83 29.48 29.61 29.54 32.4 C29.55 33.25 29.55 34.1 29.56 34.97 C29.7 40.71 30.53 46.03 33.05 51.24 C35.38 52.41 36.9 52.44 39.49 52.49 C40.27 52.52 41.05 52.54 41.86 52.57 C44.59 52.16 45.39 51.41 47.05 49.24 C47.97 46.48 48.19 44.76 48.22 41.9 C48.24 41.02 48.25 40.15 48.27 39.25 C48.28 38.31 48.29 37.36 48.3 36.4 C48.33 34.41 48.36 32.42 48.4 30.44 C48.44 27.3 48.49 24.16 48.53 21.03 C48.57 18 48.62 14.98 48.67 11.96 C48.68 11.02 48.69 10.07 48.7 9.1 C48.71 8.23 48.73 7.36 48.75 6.46 C48.76 5.69 48.77 4.93 48.78 4.13 C49.05 2.24 49.05 2.24 51.05 0.24 C54.09 0 54.09 0 57.96 0.01 C58.64 0.01 59.32 0.01 60.02 0.01 C61.46 0.02 62.9 0.02 64.34 0.04 C66.54 0.06 68.75 0.06 70.95 0.06 C81.76 0.1 81.76 0.1 84.05 1.24 C84.05 27.64 84.05 54.04 84.05 81.24 C73.49 81.24 62.93 81.24 52.05 81.24 C51.39 79.92 50.73 78.6 50.05 77.24 C49.51 77.52 48.97 77.8 48.41 78.08 C47.33 78.63 47.33 78.63 46.24 79.18 C45.18 79.72 45.18 79.72 44.09 80.27 C36.4 83.93 25.28 83.38 17.08 81.59 C7.86 77.79 1.16 70.29 -2.81 61.3 C-5.18 54.85 -5.37 48.88 -5.31 42.06 C-5.31 40.35 -5.31 40.35 -5.31 38.61 C-5.31 36.23 -5.3 33.84 -5.29 31.46 C-5.26 27.79 -5.26 24.13 -5.27 20.46 C-5.27 18.14 -5.26 15.82 -5.25 13.5 C-5.25 12.4 -5.25 11.3 -5.25 10.17 C-5.24 9.16 -5.23 8.14 -5.22 7.1 C-5.22 6.21 -5.21 5.32 -5.21 4.4 C-4.77 0.8 -3.48 0.29 0 0 Z M50.05 2.24 C50.05 15.77 50.05 29.3 50.05 43.24 C50.38 43.24 50.71 43.24 51.05 43.24 C51.05 29.71 51.05 16.18 51.05 2.24 C50.72 2.24 50.39 2.24 50.05 2.24 Z M-3.95 52.24 C-2.95 54.24 -2.95 54.24 -2.95 54.24 Z " fill="#1BE5EE" transform="translate(1082.94921875,217.757080078125)"/>
<path d="M0 0 C0.79 0.49 1.58 0.97 2.39 1.48 C3.2 1.92 4 2.37 4.82 2.83 C14.28 8.52 20.91 16.71 23.92 27.34 C26.14 37.38 25.72 50.6 20.39 59.48 C13.11 69.45 3.78 76.66 -8.49 79.16 C-23.49 81.38 -38.75 80.45 -51.48 71.73 C-60.68 64.5 -67.27 56.13 -69.61 44.48 C-70.68 31.17 -67.1 21.14 -59.15 10.54 C-45.88 -4.47 -17.65 -9.25 0 0 Z M-30.61 26.48 C-33.89 30.59 -35.29 35.21 -35 40.45 C-34.29 44.13 -32.87 47.49 -30.61 50.48 C-26.32 53.28 -21.55 53.28 -16.61 52.48 C-13.78 50.29 -12.19 48.65 -10.61 45.48 C-10.43 43.06 -10.34 40.65 -10.29 38.23 C-10.26 36.92 -10.22 35.62 -10.18 34.27 C-10.67 29.91 -11.84 27.84 -14.61 24.48 C-20.63 21.24 -25.27 22.66 -30.61 26.48 Z M-68.61 32.48 C-67.61 34.48 -67.61 34.48 -67.61 34.48 Z M-9.61 35.48 C-9.61 37.79 -9.61 40.1 -9.61 42.48 C-9.28 42.48 -8.95 42.48 -8.61 42.48 C-8.61 40.17 -8.61 37.86 -8.61 35.48 C-8.94 35.48 -9.27 35.48 -9.61 35.48 Z M-68.61 41.48 C-67.61 44.48 -67.61 44.48 -67.61 44.48 Z " fill="#1BE5EE" transform="translate(1045.60546875,220.5234375)"/>
<path d="M0 0 C1.23 0 2.47 0.01 3.74 0.01 C4.73 0.01 4.73 0.01 5.73 0.01 C7.13 0.02 8.52 0.02 9.91 0.04 C12.04 0.06 14.18 0.06 16.31 0.06 C26.76 0.1 26.76 0.1 29.05 1.24 C29.05 8.17 29.05 15.1 29.05 22.24 C33.9 22.2 33.9 22.2 38.74 22.15 C43.83 22.13 43.83 22.13 46.05 23.24 C46.05 31.16 46.05 39.08 46.05 47.24 C38.61 47.68 38.61 47.68 36.27 47.81 C32.87 47.74 32.87 47.74 30.05 49.24 C29.95 50.68 29.92 52.13 29.92 53.57 C29.92 54.46 29.92 55.34 29.91 56.24 C29.92 57.64 29.92 57.64 29.93 59.06 C29.92 59.97 29.92 60.89 29.91 61.83 C29.92 63.16 29.92 63.16 29.92 64.51 C29.92 65.73 29.92 65.73 29.92 66.97 C30 69.56 30 69.56 31.05 73.24 C35.34 73.24 39.63 73.24 44.05 73.24 C45.23 76.3 46.39 79.36 47.55 82.43 C48.05 83.73 48.05 83.73 48.56 85.05 C48.88 85.89 49.19 86.73 49.52 87.6 C49.96 88.75 49.96 88.75 50.41 89.93 C51.11 92.46 51.16 94.63 51.05 97.24 C44.46 99.89 38.69 100.71 31.61 100.62 C30.3 100.64 30.3 100.64 28.96 100.65 C19.58 100.61 11.72 98.79 4.88 92.2 C-0.14 86.82 -3.64 82.78 -3.95 75.24 C-4.28 75.24 -4.61 75.24 -4.95 75.24 C-4.95 66 -4.95 56.76 -4.95 47.24 C-8.25 47.24 -11.55 47.24 -14.95 47.24 C-16.83 43.47 -16.13 38.89 -16.14 34.74 C-16.15 33.77 -16.16 32.79 -16.17 31.79 C-16.18 30.85 -16.18 29.92 -16.18 28.96 C-16.18 28.11 -16.19 27.25 -16.19 26.37 C-15.95 24.24 -15.95 24.24 -13.95 22.24 C-11.79 22.05 -11.79 22.05 -9.32 22.12 C-8.1 22.14 -8.1 22.14 -6.85 22.17 C-5.91 22.21 -5.91 22.21 -4.95 22.24 C-4.96 21.65 -4.97 21.05 -4.98 20.44 C-5.02 17.75 -5.05 15.06 -5.07 12.37 C-5.09 11.43 -5.11 10.49 -5.12 9.53 C-5.13 8.63 -5.14 7.74 -5.14 6.81 C-5.16 5.99 -5.17 5.16 -5.18 4.31 C-4.78 0.75 -3.4 0.28 0 0 Z " fill="#FAFCFC" transform="translate(695.94921875,199.757080078125)"/>
<path d="M0 0 C0 9.57 0 19.14 0 29 C-3.3 29 -6.6 29 -10 29 C-15.43 30.53 -15.43 30.53 -19.88 33.81 C-22.84 39.58 -23.32 44.77 -23.41 51.12 C-23.43 51.97 -23.45 52.83 -23.47 53.71 C-23.53 56.43 -23.58 59.15 -23.62 61.88 C-23.66 63.73 -23.7 65.58 -23.74 67.43 C-23.84 71.95 -23.92 76.48 -24 81 C-34.89 81 -45.78 81 -57 81 C-57.15 70.59 -57.3 60.17 -57.44 49.76 C-57.51 44.92 -57.58 40.09 -57.65 35.26 C-57.72 30.59 -57.78 25.93 -57.84 21.27 C-57.87 19.49 -57.89 17.7 -57.92 15.92 C-57.96 13.43 -57.99 10.95 -58.02 8.46 C-58.03 7.71 -58.05 6.97 -58.06 6.2 C-58.08 4.47 -58.05 2.73 -58 1 C-56.12 -0.88 -52.91 -0.13 -50.41 -0.13 C-49.75 -0.13 -49.09 -0.13 -48.41 -0.14 C-47.01 -0.14 -45.62 -0.13 -44.22 -0.13 C-42.07 -0.13 -39.93 -0.13 -37.79 -0.14 C-36.43 -0.14 -35.08 -0.13 -33.72 -0.13 C-32.48 -0.13 -31.24 -0.13 -29.97 -0.13 C-27 0 -27 0 -25 1 C-24.27 3.31 -23.6 5.65 -23 8 C-23 7.01 -23 6.02 -23 5 C-21.4 4.19 -19.79 3.37 -18.19 2.56 C-17.29 2.11 -16.4 1.66 -15.48 1.19 C-9.29 -1.78 -8.35 -0.84 0 0 Z " fill="#1BE5EE" transform="translate(1238,218)"/>
<path d="M0 0 C1.23 0 2.47 0.01 3.74 0.01 C4.73 0.01 4.73 0.01 5.73 0.01 C7.13 0.02 8.52 0.02 9.91 0.04 C12.04 0.06 14.18 0.06 16.31 0.06 C26.76 0.1 26.76 0.1 29.05 1.24 C29.05 27.64 29.05 54.04 29.05 81.24 C18.16 81.24 7.27 81.24 -3.95 81.24 C-5.12 77.74 -5.1 74.6 -5.09 70.96 C-5.1 70.22 -5.1 69.48 -5.1 68.72 C-5.11 66.28 -5.12 63.84 -5.12 61.4 C-5.12 59.7 -5.12 58.01 -5.13 56.31 C-5.13 52.76 -5.14 49.21 -5.13 45.66 C-5.13 41.1 -5.15 36.54 -5.17 31.98 C-5.18 28.48 -5.18 24.98 -5.18 21.48 C-5.18 19.8 -5.18 18.12 -5.19 16.44 C-5.2 14.09 -5.2 11.75 -5.19 9.4 C-5.2 8.7 -5.2 8 -5.21 7.28 C-5.18 2.66 -5.12 0.42 0 0 Z " fill="#FBFDFD" transform="translate(440.94921875,217.757080078125)"/>
<path d="M0 0 C4.89 2.9 9.8 6.54 11.64 12.04 C12.2 17.74 11.94 22.19 8.64 27.04 C4.16 31.74 0.09 33.48 -6.36 34.04 C-13.05 34.12 -18.18 33.61 -23.36 29.04 C-27.84 24.27 -29.82 21.03 -29.69 14.49 C-29.11 10.15 -27.38 7.18 -24.36 4.04 C-17.37 -1.22 -8.33 -3.37 0 0 Z " fill="#F9FCFC" transform="translate(462.36328125,178.95703125)"/>
<path d="M0 0 C26.4 0 52.8 0 80 0 C80 0.33 80 0.66 80 1 C53.6 1 27.2 1 0 1 C0 0.67 0 0.34 0 0 Z " fill="#1BE5EE" transform="translate(892,195)"/>
<path d="M0 0 C26.4 0 52.8 0 80 0 C80 0.33 80 0.66 80 1 C53.6 1 27.2 1 0 1 C0 0.67 0 0.34 0 0 Z " fill="#FBFDFD" transform="translate(341,195)"/>
<path d="M0 0 C0.33 0 0.66 0 1 0 C1 24.75 1 49.5 1 75 C0.67 75 0.34 75 0 75 C0 50.25 0 25.5 0 0 Z " fill="#1BE5EE" transform="translate(1179,220)"/>
<path d="M0 0 C21.12 0 42.24 0 64 0 C64 0.33 64 0.66 64 1 C42.88 1 21.76 1 0 1 C0 0.67 0 0.34 0 0 Z " fill="#1BE5EE" transform="translate(191,8)"/>
<path d="M0 0 C19.8 0 39.6 0 60 0 C60 0.33 60 0.66 60 1 C40.2 1 20.4 1 0 1 C0 0.67 0 0.34 0 0 Z " fill="#1BE5EE" transform="translate(212,91)"/>
<path d="M0 0 C9.9 0 19.8 0 30 0 C30 0.33 30 0.66 30 1 C20.1 1 10.2 1 0 1 C0 0.67 0 0.34 0 0 Z " fill="#FBFDFD" transform="translate(588,189)"/>
<path d="M0 0 C0.33 0 0.66 0 1 0 C1 3.96 1 7.92 1 12 C0.67 12 0.34 12 0 12 C0 8.04 0 4.08 0 0 Z " fill="#FBFDFD" transform="translate(48,184)"/>
<path d="M0 0 C3.3 0 6.6 0 10 0 C10 0.33 10 0.66 10 1 C6.7 1 3.4 1 0 1 C0 0.67 0 0.34 0 0 Z " fill="#1BE5EE" transform="translate(1019,216)"/>
<path d="M0 0 C2.64 0 5.28 0 8 0 C8 0.33 8 0.66 8 1 C5.36 1 2.72 1 0 1 C0 0.67 0 0.34 0 0 Z " fill="#FBFDFD" transform="translate(639,216)"/>
<path d="M0 0 C2.64 0 5.28 0 8 0 C8 0.33 8 0.66 8 1 C5.36 1 2.72 1 0 1 C0 0.67 0 0.34 0 0 Z " fill="#FBFDFD" transform="translate(515,216)"/>
<path d="M0 0 C2 1 2 1 2 1 Z " fill="#1BE5EE" transform="translate(1234,216)"/>
<path d="" fill="#FBFDFD" transform="translate(0,0)"/>
</svg>
